# xmcd CD database file
#
# Track frame offsets:
#	187
#	16712
#	40312
#	67032
#	87105
#	107702
#	127940
#	148337
#	167992
#	188060
#	208367
#	232520
#	252900
#
# Disc length: 3677 seconds
#
# Revision: 0
# Processed by: cddbd v1.5.1PL0 Copyright (c) Steve Scherf et al.
# Submitted via: CDex 1.51
#
DISCID=b00e5b0d
DTITLE=SMAP - SMAP 004
DYEAR=1993
DGENRE=JPop
TTITLE0=ポケットに青春のFUN FUN FUN
TTITLE1=かなしいほど青い空
TTITLE2=ずっと忘れない（アルバム・バージョン）　
TTITLE3=永遠に抱きしめたい
TTITLE4=5月の風を抱きしめて
TTITLE5=幸せになってよ
TTITLE6=日曜日のアニキの役
TTITLE7=それでも君を好きになる
TTITLE8=September Rain
TTITLE9=こんなに僕を切なくさせてるのに
TTITLE10=泣きたい気持ち
TTITLE11=笑顔のゲンキ
TTITLE12=雪が降ってきた（アルバム・バージョン）
EXTD=YEAR: 1993
EXTT0=
EXTT1=
EXTT2=
EXTT3=
EXTT4=
EXTT5=
EXTT6=
EXTT7=
EXTT8=
EXTT9=
EXTT10=
EXTT11=
EXTT12=
PLAYORDER=
